<svg xmlns="http://www.w3.org/2000/svg" xmlns:xlink="http://www.w3.org/1999/xlink" version="1.1" x="0px" y="0px" viewBox="0 0 128 160" enable-background="new 0 0 128 128" xml:space="preserve"><path d="M90.987,37.435c-0.003-0.021-0.007-0.04-0.013-0.061c-0.022-0.084-0.059-0.165-0.121-0.228l-6-6  c-0.063-0.063-0.143-0.099-0.228-0.121c-0.021-0.006-0.04-0.01-0.062-0.013C84.542,31.01,84.522,31,84.5,31h-47  c-0.276,0-0.5,0.224-0.5,0.5v66c0,0.276,0.224,0.5,0.5,0.5h53c0.276,0,0.5-0.224,0.5-0.5v-60C91,37.478,90.99,37.457,90.987,37.435z   M89.293,37H85v-4.293L89.293,37z M38,97V32h46v5.5c0,0.276,0.224,0.5,0.5,0.5H90v59H38z"/><rect x="42" y="36" width="4" height="1"/><rect x="42" y="38" width="29" height="1"/><rect x="42" y="40" width="39" height="1"/><rect x="42" y="68" width="44" height="1"/><rect x="42" y="70" width="44" height="1"/><rect x="42" y="72" width="44" height="1"/><rect x="42" y="74" width="24" height="1"/><rect x="42" y="42" width="19" height="1"/><path d="M51,65.5c-5.238,0-9.5-4.262-9.5-9.5s4.262-9.5,9.5-9.5s9.5,4.262,9.5,9.5S56.238,65.5,51,65.5z M51,47.5  c-4.687,0-8.5,3.813-8.5,8.5s3.813,8.5,8.5,8.5s8.5-3.813,8.5-8.5S55.687,47.5,51,47.5z"/><path d="M57.102,63.102c-0.128,0-0.256-0.049-0.354-0.146l-3.547-3.547c-0.099-0.099-0.152-0.235-0.146-0.375  s0.071-0.271,0.178-0.361C54.039,57.997,54.5,57.023,54.5,56c0-1.93-1.57-3.5-3.5-3.5c-0.11,0-0.216,0.016-0.322,0.031l-0.115,0.016  c-0.141,0.018-0.285-0.026-0.394-0.121C50.062,52.331,50,52.194,50,52.05v-5.025c0-0.265,0.207-0.484,0.472-0.499l0.142-0.009  C50.742,46.508,50.87,46.5,51,46.5c5.238,0,9.5,4.262,9.5,9.5c0,2.631-1.115,5.172-3.059,6.969  C57.346,63.058,57.224,63.102,57.102,63.102z M54.272,59.065l2.834,2.834C58.654,60.305,59.5,58.229,59.5,56  c0-4.687-3.813-8.5-8.5-8.5v4c2.481,0,4.5,2.019,4.5,4.5C55.5,57.141,55.058,58.231,54.272,59.065z"/><path d="M51,60.5c-2.481,0-4.5-2.019-4.5-4.5s2.019-4.5,4.5-4.5s4.5,2.019,4.5,4.5S53.481,60.5,51,60.5z M51,52.5  c-1.93,0-3.5,1.57-3.5,3.5s1.57,3.5,3.5,3.5s3.5-1.57,3.5-3.5S52.93,52.5,51,52.5z"/><rect x="63" y="50" width="23" height="1"/><rect x="63" y="52" width="23" height="1"/><rect x="63" y="54" width="23" height="1"/><rect x="63" y="56" width="23" height="1"/><rect x="63" y="58" width="23" height="1"/><rect x="63" y="60" width="13" height="1"/><rect x="63" y="80" width="23" height="1"/><rect x="63" y="82" width="23" height="1"/><rect x="63" y="84" width="23" height="1"/><rect x="63" y="86" width="23" height="1"/><rect x="63" y="88" width="23" height="1"/><rect x="63" y="90" width="13" height="1"/><rect x="42" y="87" width="1" height="5"/><rect x="44" y="83" width="1" height="9"/><rect x="46" y="80" width="1" height="12"/><rect x="48" y="83" width="1" height="9"/><rect x="50" y="82" width="1" height="10"/><rect x="52" y="80" width="1" height="12"/><rect x="54" y="83" width="1" height="9"/><rect x="56" y="84" width="1" height="8"/><rect x="58" y="82" width="1" height="10"/><rect x="60" y="85" width="1" height="7"/></svg>