<svg xmlns="http://www.w3.org/2000/svg" xmlns:xlink="http://www.w3.org/1999/xlink" xmlns:serif="http://www.serif.com/" viewBox="0 0 100 125" version="1.1" xml:space="preserve" style="" x="0px" y="0px" fill-rule="evenodd" clip-rule="evenodd" stroke-linejoin="round" stroke-miterlimit="2"><g><g><g><path d="M48.51,41.849c-0.139,-0.325 -0.207,-0.686 -0.186,-1.063c0.072,-1.315 1.198,-2.324 2.513,-2.252l-0,0c1.315,0.072 2.324,1.198 2.252,2.513c-0.014,0.251 -0.066,0.49 -0.15,0.713l-0.737,0.076c0.149,-0.241 0.241,-0.521 0.257,-0.823c0.053,-0.968 -0.689,-1.796 -1.657,-1.849l0,-0c-0.967,-0.053 -1.795,0.689 -1.848,1.657c-0.022,0.396 0.09,0.769 0.296,1.075l-0.74,-0.047Zm-8.706,-0.556l-0.549,-2.804c-0.021,-0.107 0.015,-0.218 0.095,-0.292c0.081,-0.074 0.194,-0.102 0.299,-0.072l4.73,1.31c0.106,0.029 0.188,0.111 0.219,0.216c0.03,0.104 0.004,0.218 -0.069,0.299l-1.402,1.555l-0.803,-0.051l1.395,-1.548c0,0 -3.747,-1.038 -3.747,-1.038l0.483,2.466l-0.651,-0.041Zm20.639,-0.302l3.487,-0.357l-0.264,-2.975c-0.011,-0.13 -0.101,-0.239 -0.226,-0.275c-0.125,-0.036 -0.26,0.008 -0.339,0.112l-2.647,3.48c-0.004,0.005 -0.007,0.01 -0.011,0.015Zm0.984,-0.253l1.683,-2.212c0,-0 0.171,1.931 0.171,1.931l-1.854,0.281Zm-1.481,-6.716c0.054,-0.165 -0.036,-0.343 -0.202,-0.397l-3.404,-1.115c-0.165,-0.054 -0.343,0.036 -0.397,0.201l-1.115,3.404c-0.054,0.166 0.036,0.344 0.201,0.398l3.404,1.115c0.166,0.054 0.344,-0.036 0.398,-0.202l1.115,-3.404Zm-0.698,0.104l-0.918,2.804c-0,0 -2.805,-0.918 -2.805,-0.918c0,-0 0.919,-2.805 0.919,-2.805c-0,0 2.804,0.919 2.804,0.919Zm-15.873,0.211c0.038,-0.1 0.022,-0.213 -0.042,-0.298c-0.064,-0.086 -0.167,-0.134 -0.273,-0.127c-1.425,0.093 -2.739,-0.874 -3.04,-2.311c-0.118,-0.559 -0.066,-1.115 0.12,-1.614c0.037,-0.1 0.021,-0.213 -0.043,-0.298c-0.064,-0.086 -0.167,-0.134 -0.273,-0.127c-0.167,0.011 -0.335,0.034 -0.503,0.069c-1.915,0.402 -3.144,2.285 -2.742,4.2c0.403,1.916 2.285,3.145 4.201,2.742c1.235,-0.259 2.185,-1.134 2.595,-2.236Zm-3.97,-4.079c-0.101,0.471 -0.108,0.971 -0.002,1.473c0.33,1.573 1.659,2.683 3.186,2.806l-0,0c-0.399,0.704 -1.086,1.24 -1.939,1.419c-1.575,0.331 -3.123,-0.679 -3.454,-2.254c-0.327,-1.56 0.66,-3.093 2.209,-3.444Zm8.808,2.657l-1.501,-0.979c-0.145,-0.095 -0.341,-0.054 -0.436,0.091c-0.095,0.146 -0.054,0.342 0.092,0.437l1.284,0.838l-1.501,0.315c-0.17,0.036 -0.279,0.203 -0.243,0.373c0.035,0.171 0.203,0.28 0.373,0.244l1.586,-0.333l-0.445,1.264c-0.058,0.164 0.029,0.345 0.193,0.402c0.164,0.058 0.344,-0.028 0.402,-0.193l0.524,-1.491l1.669,1.089c0.146,0.095 0.341,0.054 0.436,-0.092c0.095,-0.145 0.054,-0.341 -0.091,-0.436l-1.284,-0.838l1.5,-0.315c0.171,-0.036 0.28,-0.203 0.244,-0.374c-0.036,-0.17 -0.203,-0.279 -0.373,-0.243l-1.809,0.38l0.706,-2.008c0.057,-0.164 -0.029,-0.345 -0.193,-0.402c-0.164,-0.058 -0.345,0.028 -0.402,0.193l-0.731,2.078Zm6.918,-8.191c-0.005,-0.136 -0.097,-0.254 -0.229,-0.291c-0.131,-0.037 -0.272,0.015 -0.348,0.128l-1.117,1.669c-0,0 -1.933,-0.547 -1.933,-0.547c-0.132,-0.037 -0.272,0.014 -0.348,0.128c-0.076,0.113 -0.07,0.263 0.014,0.37l1.242,1.579c0,-0 -1.117,1.669 -1.117,1.669c-0.076,0.114 -0.071,0.263 0.014,0.37c0.084,0.108 0.228,0.149 0.356,0.101l1.886,-0.693c-0,0 1.242,1.579 1.242,1.579c0.084,0.107 0.228,0.148 0.356,0.101c0.129,-0.047 0.212,-0.172 0.207,-0.308l-0.077,-2.008c-0,0 1.885,-0.693 1.885,-0.693c0.128,-0.047 0.211,-0.171 0.206,-0.308c-0.005,-0.136 -0.098,-0.254 -0.229,-0.291l-1.933,-0.547c0,-0 -0.077,-2.008 -0.077,-2.008Zm6.611,2.344l-1.332,-0.391c-0.167,-0.049 -0.342,0.046 -0.391,0.213c-0.05,0.167 0.046,0.343 0.213,0.392l1.13,0.332l-0.57,0.817l-1.281,-0.377c-0.167,-0.049 -0.343,0.047 -0.392,0.214c-0.049,0.167 0.047,0.342 0.214,0.391l1.079,0.317l-0.644,0.922c-0.099,0.143 -0.064,0.34 0.079,0.439c0.142,0.1 0.339,0.065 0.439,-0.078l0.764,-1.095l0.955,0.281l-0.673,0.965c-0.1,0.143 -0.065,0.34 0.078,0.439c0.143,0.1 0.339,0.065 0.439,-0.078l0.794,-1.139l1.333,0.392c0.167,0.049 0.342,-0.047 0.391,-0.214c0.049,-0.167 -0.047,-0.342 -0.213,-0.391l-1.13,-0.332l0.57,-0.817l1.281,0.376c0.167,0.049 0.342,-0.046 0.391,-0.213c0.049,-0.167 -0.046,-0.343 -0.213,-0.392l-1.079,-0.317l0.643,-0.922c0.1,-0.143 0.065,-0.339 -0.078,-0.439c-0.143,-0.1 -0.339,-0.064 -0.439,0.078l-0.764,1.096l-0.956,-0.281l0.674,-0.966c0.099,-0.143 0.064,-0.34 -0.078,-0.439c-0.143,-0.1 -0.34,-0.065 -0.439,0.078l-0.795,1.139Zm-17.594,-3.133c-0.066,-0.08 -0.167,-0.123 -0.271,-0.114c-0.103,0.009 -0.196,0.068 -0.247,0.159l-1.66,2.922c-0.065,0.113 -0.053,0.254 0.03,0.355l2.13,2.6c0.066,0.08 0.167,0.123 0.271,0.114c0.103,-0.009 0.196,-0.068 0.247,-0.158l1.66,-2.922c0.064,-0.114 0.052,-0.255 -0.03,-0.356l-2.13,-2.6Zm10.39,1.783l0.049,1.267c0.005,0.136 0.098,0.254 0.229,0.291l1.22,0.345c-0,0 -1.19,0.438 -1.19,0.438c-0.128,0.047 -0.211,0.171 -0.206,0.308l0.048,1.266c0,0 -0.783,-0.996 -0.783,-0.996c-0.085,-0.107 -0.229,-0.148 -0.357,-0.101l-1.19,0.438c0,-0 0.706,-1.054 0.706,-1.054c0.076,-0.113 0.07,-0.263 -0.015,-0.37l-0.783,-0.996c-0,-0 1.219,0.345 1.219,0.345c0.132,0.037 0.272,-0.014 0.348,-0.128l0.705,-1.053Zm-10.587,-1.028l1.702,2.077c-0,0 -1.326,2.335 -1.326,2.335c-0,-0 -1.702,-2.077 -1.702,-2.077l1.326,-2.335Zm17.479,3.928l0.956,0.281l0.57,-0.817l-0.956,-0.281l-0.57,0.817Zm-28.431,-7.268c-0.036,-0.17 -0.203,-0.279 -0.373,-0.244l-2.286,0.481c-0.17,0.035 -0.28,0.203 -0.244,0.373l1.733,8.248c0.036,0.17 0.203,0.279 0.373,0.243l2.286,-0.48c0.17,-0.036 0.28,-0.203 0.244,-0.373l-1.733,-8.248Zm-0.552,0.438c0.273,1.301 1.33,6.33 1.603,7.631c-0,-0 -1.669,0.35 -1.669,0.35c-0.273,-1.3 -1.33,-6.329 -1.603,-7.63l1.669,-0.351Zm19.713,-1.947c-0.875,-0.571 -2.195,-0.179 -2.925,0.94c-0.73,1.118 -0.558,2.484 0.316,3.056c0.875,0.571 2.195,0.178 2.925,-0.941c0.73,-1.118 0.559,-2.484 -0.316,-3.055l-0,-0Zm7.226,-2.103c-0.124,-0.056 -0.271,-0.025 -0.362,0.076l-2.158,2.385c-0.092,0.101 -0.108,0.25 -0.04,0.369l1.602,2.789c0.068,0.118 0.204,0.18 0.338,0.151l3.148,-0.661c0.133,-0.028 0.234,-0.139 0.248,-0.275l0.344,-3.198c0.015,-0.135 -0.06,-0.265 -0.184,-0.321l-2.936,-1.315Zm-7.571,2.631c0.623,0.406 0.653,1.387 0.133,2.183c-0.52,0.796 -1.429,1.163 -2.052,0.757c-0.623,-0.407 -0.652,-1.387 -0.133,-2.184c0.52,-0.796 1.429,-1.163 2.052,-0.756l0,-0Zm7.523,-1.962l2.517,1.128c-0,-0 -0.295,2.742 -0.295,2.742c0,0 -2.699,0.567 -2.699,0.567c-0,0 -1.374,-2.392 -1.374,-2.392l1.851,-2.045Zm-15.108,-1.704c0.006,-0.097 -0.034,-0.191 -0.107,-0.255c-0.073,-0.064 -0.171,-0.09 -0.266,-0.072l-4.339,0.823c-0.142,0.027 -0.248,0.148 -0.256,0.293l-0.239,4.359c-0.005,0.096 0.035,0.19 0.108,0.254c0.073,0.064 0.171,0.091 0.266,0.073l4.338,-0.824c0.143,-0.027 0.249,-0.148 0.257,-0.292l0.238,-4.359Zm-0.651,0.367l-0.204,3.711c0,-0 -3.7,0.702 -3.7,0.702c0,0 0.203,-3.71 0.203,-3.71l3.701,-0.703Zm9.278,-4.104c-0.022,-0.111 -0.103,-0.201 -0.21,-0.237c-0.108,-0.035 -0.226,-0.01 -0.31,0.066l-3.409,3.093c-0.083,0.076 -0.119,0.189 -0.096,0.299c0.023,0.11 0.103,0.199 0.21,0.234l4.326,1.417c0.107,0.035 0.224,0.011 0.308,-0.064c0.084,-0.075 0.122,-0.188 0.099,-0.298l-0.918,-4.51Zm17.073,3.48c0.059,-0.094 0.065,-0.214 0.013,-0.313c-0.051,-0.099 -0.151,-0.164 -0.263,-0.17l-1.572,-0.086c-0.114,-0.007 -0.222,0.049 -0.283,0.146l-2.869,4.533c-0.06,0.094 -0.065,0.214 -0.014,0.313c0.051,0.099 0.152,0.164 0.263,0.17l1.572,0.086c0.114,0.007 0.223,-0.049 0.284,-0.146l2.869,-4.533Zm-17.58,-2.811l0.699,3.435c0,0 -3.295,-1.079 -3.295,-1.079l2.596,-2.356Zm16.759,2.928l-2.482,3.923c-0,-0 -0.851,-0.047 -0.851,-0.047c0,0 2.483,-3.923 2.483,-3.923l0.85,0.047Zm-36.015,1.031c1.289,0.402 2.501,0.234 3.521,-0.962c0.113,-0.133 0.097,-0.332 -0.036,-0.445c-0.132,-0.113 -0.331,-0.097 -0.444,0.036c-0.825,0.968 -1.81,1.095 -2.853,0.769c-0.166,-0.052 -0.343,0.041 -0.395,0.207c-0.052,0.166 0.041,0.343 0.207,0.395Zm12.351,-5.802l-2.234,1.443c-0.146,0.095 -0.188,0.29 -0.093,0.436c0.094,0.146 0.289,0.188 0.435,0.094l2.031,-1.312l0.411,1.956c0.036,0.17 0.203,0.28 0.373,0.244c0.171,-0.036 0.28,-0.203 0.244,-0.373l-0.461,-2.194l1.851,-1.196c0.147,-0.094 0.189,-0.29 0.094,-0.436c-0.094,-0.146 -0.29,-0.188 -0.436,-0.093l-1.648,1.064l-0.489,-2.329c-0.036,-0.17 -0.203,-0.28 -0.373,-0.244c-0.171,0.036 -0.28,0.203 -0.244,0.373l0.539,2.567Zm-12.86,1.093c-0.614,-0.034 -1.14,0.437 -1.174,1.052c-0.033,0.614 0.438,1.14 1.052,1.174c0.615,0.033 1.141,-0.438 1.174,-1.052c0.034,-0.615 -0.437,-1.141 -1.052,-1.174l0,-0Zm25.966,0.914c0.166,0.054 0.344,-0.036 0.398,-0.202c0.28,-0.854 1.2,-1.32 2.054,-1.04c0.854,0.28 1.32,1.2 1.041,2.054c-0.055,0.166 0.036,0.344 0.201,0.398l1.847,0.605c0.166,0.054 0.344,-0.036 0.398,-0.202c0.722,-2.204 -0.482,-4.579 -2.686,-5.301c-2.204,-0.722 -4.579,0.481 -5.301,2.685c-0.055,0.166 0.036,0.344 0.201,0.398l1.847,0.605Zm-26,-0.285c0.267,0.015 0.471,0.243 0.457,0.51c-0.015,0.267 -0.243,0.472 -0.51,0.457c-0.267,-0.015 -0.472,-0.243 -0.457,-0.51c0.015,-0.267 0.243,-0.471 0.51,-0.457l-0,0Zm3.261,-1.428c-0.614,-0.033 -1.14,0.438 -1.174,1.052c-0.033,0.615 0.438,1.141 1.052,1.174c0.614,0.034 1.141,-0.437 1.174,-1.052c0.034,-0.614 -0.438,-1.14 -1.052,-1.174l0,0Zm22.657,1.022l-1.256,-0.411c0.72,-1.683 2.623,-2.568 4.395,-1.987c1.773,0.58 2.784,2.419 2.368,4.202c-0,0 -1.256,-0.411 -1.256,-0.411c0.196,-1.091 -0.438,-2.189 -1.521,-2.543c-1.083,-0.355 -2.243,0.155 -2.73,1.15Zm-22.691,-0.392c0.266,0.014 0.471,0.243 0.457,0.51c-0.015,0.267 -0.244,0.471 -0.51,0.457c-0.267,-0.015 -0.472,-0.243 -0.457,-0.51c0.014,-0.267 0.243,-0.472 0.51,-0.457l-0,-0Z"/><path d="M37.933,23.733c-1.102,0 -1.996,0.895 -1.996,1.997c-0,1.102 0.894,1.997 1.996,1.997c1.102,-0 1.997,-0.895 1.997,-1.997c0,-1.102 -0.895,-1.997 -1.997,-1.997Zm0,0.631c0.754,-0 1.367,0.612 1.367,1.366c-0,0.754 -0.613,1.366 -1.367,1.366c-0.754,-0 -1.366,-0.612 -1.366,-1.366c0,-0.754 0.612,-1.366 1.366,-1.366Z"/><path d="M68.602,28.745c-0.245,-0.141 -0.577,-0.132 -0.934,0.062c-0.399,0.215 -0.851,0.672 -1.202,1.281c-0.352,0.609 -0.521,1.229 -0.509,1.682c0.011,0.406 0.169,0.698 0.414,0.84c0.246,0.141 0.578,0.132 0.934,-0.061c0.399,-0.216 0.851,-0.673 1.203,-1.282c0.351,-0.609 0.521,-1.229 0.508,-1.682c-0.011,-0.406 -0.168,-0.698 -0.414,-0.84Zm-0.315,0.546c0.086,0.05 0.095,0.17 0.099,0.311c0.01,0.365 -0.142,0.86 -0.424,1.35c-0.283,0.49 -0.636,0.868 -0.957,1.042c-0.124,0.067 -0.233,0.119 -0.319,0.07c-0.085,-0.05 -0.095,-0.17 -0.099,-0.311c-0.01,-0.365 0.142,-0.859 0.425,-1.35c0.283,-0.49 0.635,-0.868 0.956,-1.042c0.125,-0.067 0.233,-0.119 0.319,-0.07Z"/><path d="M65.918,22.581c-0.095,-0.047 -0.207,-0.043 -0.298,0.009c-0.092,0.053 -0.151,0.148 -0.157,0.254c-0,-0 -0.051,0.817 0.021,1.485c0.036,0.327 0.106,0.621 0.208,0.798c0.333,0.576 1.071,0.774 1.647,0.441c0.576,-0.332 0.774,-1.07 0.441,-1.646c-0.102,-0.178 -0.322,-0.385 -0.588,-0.58c-0.542,-0.396 -1.274,-0.761 -1.274,-0.761Zm0.158,0.8c0.227,0.128 0.506,0.296 0.745,0.47c0.182,0.134 0.343,0.264 0.413,0.386c0.159,0.275 0.064,0.627 -0.21,0.785c-0.275,0.159 -0.627,0.065 -0.786,-0.21c-0.07,-0.122 -0.103,-0.327 -0.127,-0.551c-0.032,-0.294 -0.037,-0.619 -0.035,-0.88l-0,0Z"/></g><g><path d="M54.978,67.136c-0,-0 -0.531,-4.971 -0.531,-6.225c0,-1.267 0.548,-2.353 1.386,-3.382c0.95,-1.166 2.261,-2.25 3.686,-3.381c4.672,-3.707 10.411,-7.884 10.411,-15.865l0,-0.013l0,-0c-0.003,-0.484 -0.204,-0.979 -0.673,-1.436c-0.646,-0.628 -1.987,-1.254 -3.891,-1.747c-0.533,-0.138 -1.078,0.183 -1.216,0.716c-0.139,0.533 0.182,1.079 0.716,1.217c1.091,0.283 1.963,0.591 2.56,0.933c0.165,0.095 0.342,0.246 0.442,0.337c-0.033,0.035 -0.072,0.073 -0.107,0.1c-0.297,0.236 -0.74,0.451 -1.298,0.661c-3.09,1.165 -9.318,1.94 -16.487,1.94c-7.169,-0 -13.397,-0.775 -16.487,-1.94c-0.558,-0.21 -1,-0.425 -1.298,-0.661c-0.035,-0.027 -0.073,-0.065 -0.106,-0.1c0.099,-0.091 0.277,-0.242 0.441,-0.337c0.597,-0.342 1.469,-0.65 2.561,-0.933c0.533,-0.138 0.854,-0.684 0.716,-1.217c-0.139,-0.533 -0.684,-0.854 -1.217,-0.716c-1.904,0.493 -3.245,1.119 -3.89,1.747c-0.47,0.457 -0.671,0.952 -0.674,1.436l-0,0.013c-0,7.981 5.74,12.158 10.411,15.865c1.425,1.131 2.736,2.215 3.686,3.381c0.838,1.029 1.386,2.115 1.386,3.382c0,1.254 -0.531,6.225 -0.531,6.225c0,0.393 0.23,0.749 0.588,0.91c0,0 0.038,0.017 0.106,0.048c2.739,1.234 5.877,1.234 8.616,-0c0.068,-0.031 0.106,-0.048 0.106,-0.048c0.358,-0.161 0.588,-0.517 0.588,-0.91Z"/></g></g><path d="M50,78.304c-1.565,0 -2.836,1.271 -2.836,2.837c-0,1.565 1.271,2.836 2.836,2.836c1.566,-0 2.837,-1.271 2.837,-2.836c-0,-1.566 -1.271,-2.837 -2.837,-2.837Zm0,0.631c1.218,-0 2.206,0.988 2.206,2.206c0,1.217 -0.988,2.205 -2.206,2.205c-1.217,0 -2.206,-0.988 -2.206,-2.205c0,-1.218 0.989,-2.206 2.206,-2.206Z"/><path d="M52.64,86.19c0,-0.174 -0.141,-0.315 -0.315,-0.315l-4.65,-0c-0.174,-0 -0.315,0.141 -0.315,0.315l0,4.649c0,0.175 0.141,0.316 0.315,0.316l4.65,-0c0.174,-0 0.315,-0.141 0.315,-0.316l0,-4.649Zm-0.63,0.315l-0,4.019c-0,0 -4.019,0 -4.019,0c-0,0 -0,-4.019 -0,-4.019l4.019,0Z"/><path d="M50.273,71.075c-0.056,-0.097 -0.16,-0.158 -0.273,-0.158c-0.113,0 -0.217,0.061 -0.273,0.158l-2.805,4.858c-0.056,0.098 -0.056,0.218 0,0.316c0.056,0.097 0.16,0.157 0.273,0.157l5.61,0c0.113,0 0.217,-0.06 0.273,-0.157c0.056,-0.098 0.056,-0.218 0,-0.316l-2.805,-4.858Zm-0.273,0.788l2.259,3.913c0,-0 -4.518,-0 -4.518,-0l2.259,-3.913Z"/></g></svg>